<mxfile host="app.diagrams.net" modified="2023-03-01T07:43:41.046Z" agent="5.0 (Macintosh; Intel Mac OS X 10_15_7) AppleWebKit/537.36 (KHTML, like Gecko) Chrome/110.0.0.0 Safari/537.36 Edg/110.0.1587.50" etag="1uKLA72Hap-2UJVSEwuJ" version="20.8.23" type="github">
  <diagram name="And-Gate" id="u10YveOSF3FBLlsxwQq4">
    <mxGraphModel dx="925" dy="580" grid="1" gridSize="10" guides="1" tooltips="1" connect="1" arrows="1" fold="1" page="1" pageScale="1" pageWidth="827" pageHeight="1169" math="0" shadow="0">
      <root>
        <mxCell id="0" />
        <mxCell id="1" parent="0" />
        <mxCell id="NyGEZXsJiVMz1paDzBxX-1" value="" style="rounded=1;whiteSpace=wrap;html=1;fontSize=16;arcSize=4;" vertex="1" parent="1">
          <mxGeometry x="120" y="80" width="380" height="210" as="geometry" />
        </mxCell>
      </root>
    </mxGraphModel>
  </diagram>
</mxfile>
